<svg>
    <symbol id="icon-search"  viewBox="0 0 17 18"  xmlns="http://www.w3.org/2000/svg">
        <path d="M11.9276 12.7748L15.37 17.0644" stroke="white" stroke-linecap="round"/>
        <circle cx="8.48533" cy="8.48526" r="5.5" transform="rotate(-38.7469 8.48533 8.48526)" stroke="white"/>
    </symbol>
    <symbol id="icon-watch"  viewBox="0 0 12 12"  xmlns="http://www.w3.org/2000/svg">
        <circle cx="6" cy="6" r="5.5" stroke="#696969"/>
        <path d="M4 6H6.5V2.5" stroke="#696969"/>
    </symbol>
    <symbol id="icon-like"  viewBox="0 0 16 14"  xmlns="http://www.w3.org/2000/svg">
        <path d="M8.34372 2.25572H8.36529C9.29718 1.44175 11.7563 0.165765 13.9565 1.76734C17.3111 4.20921 14.2458 9.5 8.36529 13H8.34372M8.34378 2.25572H8.32221C7.39032 1.44175 4.93121 0.165765 2.73102 1.76734C-0.623552 4.20921 2.44172 9.5 8.32221 13H8.34378"/>
    </symbol>

    <symbol id="icon-note"  viewBox="0 0 20 19"  xmlns="http://www.w3.org/2000/svg">
        <path d="M8 16V1.9697L19 1V13" stroke="#4E4E4E"/>
        <ellipse cx="4.5" cy="16" rx="3.5" ry="2" stroke="#4E4E4E"/>
        <ellipse cx="15.5" cy="13" rx="3.5" ry="2" stroke="#4E4E4E"/>
    </symbol>

    <symbol id="icon-dislike"  viewBox="0 0 16 15"  xmlns="http://www.w3.org/2000/svg">
        <path d="M8.34372 3.25572H8.36529C9.29718 2.44175 11.7563 1.16576 13.9565 2.76734C17.3111 5.20921 14.2458 10.5 8.36529 14H8.34372M8.34378 3.25572H8.32221C7.39032 2.44175 4.93121 1.16576 2.73102 2.76734C-0.623552 5.20921 2.44172 10.5 8.32221 14H8.34378" />
        <path d="M1 1L15 13.5" />
    </symbol>
    <symbol id="icon-prev" viewBox="0 0 16 14"  xmlns="http://www.w3.org/2000/svg">
        <path d="M1 2V12.5" />
        <path d="M3 7L12.75 0.937823L12.75 13.0622L3 7Z" />
    </symbol>
    <symbol id="icon-play" viewBox="0 0 15 20"  xmlns="http://www.w3.org/2000/svg">
        <path d="M15 10L-1.01012e-06 0.47372L-1.84293e-06 19.5263L15 10Z" />
    </symbol>
    <symbol id="icon-stop" viewBox="0 0 15 19" version="1.1" xmlns="http://www.w3.org/2000/svg">
       <rect width="5" height="19" />
       <rect x="10" width="5" height="19" />
    </symbol>
    <symbol id="icon-next" viewBox="0 0 16 14"  xmlns="http://www.w3.org/2000/svg">
        <path d="M15 2V12.5" />
        <path d="M13 7L3.25 0.937823L3.25 13.0622L13 7Z" />
    </symbol>
    <symbol id="icon-repeat" viewBox="0 0 20 18"  xmlns="http://www.w3.org/2000/svg">
        <path d="M10 3L5 0.113249V5.88675L10 3ZM7 14.5C3.96243 14.5 1.5 12.0376 1.5 9H0.5C0.5 12.5899 3.41015 15.5 7 15.5V14.5ZM1.5 9C1.5 5.96243 3.96243 3.5 7 3.5V2.5C3.41015 2.5 0.5 5.41015 0.5 9H1.5Z" fill="#696969"/>
        <path d="M10 15L15 17.8868V12.1132L10 15ZM13 3.5C16.0376 3.5 18.5 5.96243 18.5 9H19.5C19.5 5.41015 16.5899 2.5 13 2.5V3.5ZM18.5 9C18.5 12.0376 16.0376 14.5 13 14.5V15.5C16.5899 15.5 19.5 12.5899 19.5 9H18.5Z" fill="#696969"/>
    </symbol>
    <symbol id="icon-shuffle" viewBox="0 0 20 18"  xmlns="http://www.w3.org/2000/svg">
        <path d="M19.5 15L14.5 12.1132V17.8868L19.5 15ZM10.1632 12.0833L9.70863 12.2916L10.1632 12.0833ZM7.33683 5.91673L6.8823 6.12505L7.33683 5.91673ZM0.5 3.5H2.79151V2.5H0.5V3.5ZM6.8823 6.12505L9.70863 12.2916L10.6177 11.8749L7.79137 5.7084L6.8823 6.12505ZM14.7085 15.5H15V14.5H14.7085V15.5ZM9.70863 12.2916C10.6047 14.2466 12.5579 15.5 14.7085 15.5V14.5C12.949 14.5 11.3508 13.4745 10.6177 11.8749L9.70863 12.2916ZM2.79151 3.5C4.55105 3.5 6.14918 4.52552 6.8823 6.12505L7.79137 5.7084C6.89533 3.75341 4.94205 2.5 2.79151 2.5V3.5Z" />
        <path d="M19.5 3L14.5 5.88675V0.113249L19.5 3ZM10.1632 5.91673L9.70863 5.7084L10.1632 5.91673ZM7.33683 12.0833L6.8823 11.8749L7.33683 12.0833ZM0.5 14.5H2.79151V15.5H0.5V14.5ZM6.8823 11.8749L9.70863 5.7084L10.6177 6.12505L7.79137 12.2916L6.8823 11.8749ZM14.7085 2.5H15V3.5H14.7085V2.5ZM9.70863 5.7084C10.6047 3.75341 12.5579 2.5 14.7085 2.5V3.5C12.949 3.5 11.3508 4.52552 10.6177 6.12505L9.70863 5.7084ZM2.79151 14.5C4.55105 14.5 6.14918 13.4745 6.8823 11.8749L7.79137 12.2916C6.89533 14.2466 4.94205 15.5 2.79151 15.5V14.5Z" />
    </symbol>
    <symbol id="icon-volume" version="1.0" xmlns="http://www.w3.org/2000/svg" viewBox="0 0 32.000000 32.000000" preserveAspectRatio="xMidYMid meet">
        <g transform="translate(0.000000,32.000000) scale(0.100000,-0.100000)">
            <path d="M130 245 c-19 -20 -44 -35 -57 -35 -21 0 -23 -4 -23 -50 0 -45 2 -50 22 -50 12 0 39 -17 60 -37 l38 -37 0 122 c0 67 -1 122 -3 122 -2 0 -18 -16 -37 -35z m20 -87 l0 -71 -23 21 c-13 12 -31 22 -40 22 -12 0 -17 9 -17 30 0 22 5 30 18 30 11 0 27 9 37 20 10 11 20 20 22 20 1 0 3 -32 3 -72z"/>
            <path d="M235 214 c11 -24 12 -83 1 -106 -5 -11 -4 -18 2 -18 5 0 15 14 22 31 15 36 4 100 -19 107 -11 4 -12 0 -6 -14z"/>
            <path d="M204 153 c-1 -41 0 -44 13 -28 14 21 16 35 7 59 -11 29 -19 17 -20 -31z"/>
        </g>
    </symbol>
    <symbol id="icon-volume-off" version="1.0" xmlns="http://www.w3.org/2000/svg" viewBox="0 0 32.000000 32.000000" preserveAspectRatio="xMidYMid meet">
        <g transform="translate(0.000000,32.000000) scale(0.100000,-0.100000)">
            <path d="M30 282 c0 -14 249 -256 256 -249 4 4 -2 17 -14 30 -19 20 -20 27 -10 53 12 34 5 91 -16 120 -21 28 -29 12 -11 -22 16 -31 18 -56 9 -91 -9 -35 -23 -17 -17 21 5 34 -10 76 -28 76 -6 0 -6 -7 1 -19 12 -23 13 -61 2 -61 -20 0 -32 29 -32 79 l0 55 -28 -27 -28 -27 -34 35 c-33 34 -50 43 -50 27z m120 -78 c0 -8 -5 -12 -10 -9 -6 4 -8 11 -5 16 9 14 15 11 15 -7z"/>
            <path d="M60 161 c0 -46 2 -51 22 -51 12 0 37 -14 55 -32 l33 -32 0 36 c0 20 -4 40 -10 43 -5 3 -10 -2 -10 -11 0 -16 -1 -16 -18 -1 -10 10 -26 17 -36 17 -14 0 -17 7 -14 37 2 22 -2 38 -10 41 -8 2 -12 -11 -12 -47z"/>
        </g>
    </symbol>
    <symbol id="icon-logout" width="40" height="40" viewBox="0 0 40 40" fill="none" xmlns="http://www.w3.org/2000/svg">
        <path d="M25.6711 16.046V14.7419C25.6711 13.2276 24.4435 12 22.9292 12H16.7419C15.2276 12 14 13.2276 14 14.7419V26.0645C14 27.5788 15.2276 28.8065 16.7419 28.8065H22.9292C24.4435 28.8065 25.6711 27.5788 25.6711 26.0645V24.6048M18.3572 20.3254H33.2963M33.2963 20.3254L30.1062 23.5155M33.2963 20.3254L30.1062 17.1353"  stroke-linecap="round" stroke-linejoin="round"/>
        <circle cx="20" cy="20" r="19.5" />
    </symbol>

</svg>